# xmcd CD database file
#
# Track frame offsets:
#	150
#	15987
#	36687
#	53940
#	76752
#	94015
#	104382
#	121555
#	142497
#	157617
#
# Disc length: 2540 seconds
#
# Revision: 0
# Processed by: cddbd v1.5.1PL0 Copyright (c) Steve Scherf et al.
# Submitted via: CDex 1.51
#
DISCID=7509ea0a
DTITLE=Alte Leidenschaften - Alte Leidenschaften special guest Ray Anderson
DYEAR=1988
DGENRE=Jazz
TTITLE0=Inevitable
TTITLE1=Schweine im Weltall
TTITLE2=Liebeslied für einen Bumerang
TTITLE3=Infinity
TTITLE4=Doo Wop
TTITLE5=Rush Hour
TTITLE6=Night People
TTITLE7=Albert (dedicated to Albert Preisfeld)
TTITLE8=What?
TTITLE9=Magic
EXTD=Andreas Kaling - ts ss voc keyb, Uwe Niepel - g synth, Karl Godejohann - dr, Ray Anderson - tromb on 2 5 6 10 YEAR: 1988
EXTT0=
EXTT1=
EXTT2=
EXTT3=
EXTT4=
EXTT5=
EXTT6=
EXTT7=
EXTT8=
EXTT9=
PLAYORDER=
